<?xml version="1.0" encoding="UTF-8" standalone="no"?>
<!DOCTYPE svg PUBLIC "-//W3C//DTD SVG 1.1//EN" "http://www.w3.org/Graphics/SVG/1.1/DTD/svg11.dtd">
<svg width="1063.68" height="1265.28" viewBox="0.00 0.00 4432.00 5272.00" xmlns="http://www.w3.org/2000/svg" xmlns:xlink="http://www.w3.org/1999/xlink">
<g stroke-linecap="round" transform="translate(-472.00, -109.00)" id="Layer_1">
<path d="M4138.57,869.29 Q4378.71,869.29 4618.85,869.29 Q4639.35,869.29 4639.35,889.79 Q4639.35,2999.99 4639.35,5110.19 Q4639.35,5130.69 4618.85,5130.69 Q2962.19,5130.69 1305.53,5130.69 Q1285.03,5130.69 1285.03,5110.19 Q1285.03,4884.22 1285.03,4658.25" fill="none" stroke="rgb(0, 0, 0)" stroke-width="257.70" stroke-opacity="1.00" stroke-linejoin="round"/>
<path d="M762.23,377.95 Q2435.42,377.95 4108.62,377.95 Q4129.12,377.95 4129.12,398.45 Q4129.12,2513.38 4129.12,4628.30 Q4129.12,4648.80 4108.62,4648.80 Q2435.42,4648.80 762.23,4648.80 Q741.73,4648.80 741.73,4628.30 Q741.73,2513.38 741.73,398.45 Q741.73,377.95 762.23,377.95 Z" fill="none" stroke="rgb(0, 0, 0)" stroke-width="257.70" stroke-opacity="1.00" stroke-linejoin="round"/>
<path d="M1464.42,892.60 L1346.32,1180.78" fill="none" stroke="rgb(0, 0, 0)" stroke-width="163.50" stroke-opacity="1.00" stroke-linejoin="round"/>
<path d="M1709.85,1043.05 L2224.81,1038.33" fill="none" stroke="rgb(0, 0, 0)" stroke-width="163.50" stroke-opacity="1.00" stroke-linejoin="round"/>
<path d="M2607.42,892.60 L2489.32,1180.78" fill="none" stroke="rgb(0, 0, 0)" stroke-width="163.50" stroke-opacity="1.00" stroke-linejoin="round"/>
<path d="M2852.85,1043.05 L3367.81,1038.33" fill="none" stroke="rgb(0, 0, 0)" stroke-width="163.50" stroke-opacity="1.00" stroke-linejoin="round"/>
<path d="M1416.42,1492.60 L1298.32,1780.78" fill="none" stroke="rgb(0, 0, 0)" stroke-width="163.50" stroke-opacity="1.00" stroke-linejoin="round"/>
<path d="M1661.85,1643.05 L2176.81,1638.33" fill="none" stroke="rgb(0, 0, 0)" stroke-width="163.50" stroke-opacity="1.00" stroke-linejoin="round"/>
<path d="M1412.42,2101.60 L1294.32,2389.78" fill="none" stroke="rgb(0, 0, 0)" stroke-width="163.50" stroke-opacity="1.00" stroke-linejoin="round"/>
<path d="M1657.85,2252.05 L2172.81,2247.33" fill="none" stroke="rgb(0, 0, 0)" stroke-width="163.50" stroke-opacity="1.00" stroke-linejoin="round"/>
<path d="M2560.42,2130.60 L2442.32,2418.78" fill="none" stroke="rgb(0, 0, 0)" stroke-width="163.50" stroke-opacity="1.00" stroke-linejoin="round"/>
<path d="M2805.85,2281.05 L3320.81,2276.33" fill="none" stroke="rgb(0, 0, 0)" stroke-width="163.50" stroke-opacity="1.00" stroke-linejoin="round"/>
<path d="M1402.42,2734.60 L1284.32,3022.78" fill="none" stroke="rgb(0, 0, 0)" stroke-width="163.50" stroke-opacity="1.00" stroke-linejoin="round"/>
<path d="M1647.85,2885.05 L2162.81,2880.33" fill="none" stroke="rgb(0, 0, 0)" stroke-width="163.50" stroke-opacity="1.00" stroke-linejoin="round"/>
</g>
</svg>
